<svg width="990" height="721" fill="none" xmlns="http://www.w3.org/2000/svg"><path opacity=".2" d="M-195.193 0L1301.61 728.783M-283.241 42.87L1213.57 771.651M-371.289 85.74L1125.52 814.521M-459.336 128.608L1037.47 857.391M-547.383 171.479L949.424 900.261M-635.43 214.348L861.377 943.13M-723.477 257.218L773.33 986.001M-811.526 300.087L685.281 1028.87M-899.574 342.957L597.234 1071.74M-987.62 385.826L509.187 1114.61M-1075.67 428.695L421.139 1157.48M-1163.71 471.565L333.093 1200.35M-1251.76 514.435L245.045 1243.22M-1339.81 557.305L156.996 1286.09M-1427.86 600.174L68.949 1328.96m.001-1200.352l-1496.81 728.783M156.997 171.479L-1339.81 900.261M245.045 214.348L-1251.76 943.13M333.092 257.218L-1163.72 986.001M421.139 300.087L-1075.67 1028.87M509.187 342.957L-987.621 1071.74M597.217 385.826L-899.59 1114.61M685.265 428.695L-811.543 1157.48M773.312 471.565L-723.496 1200.35M861.359 514.435L-635.448 1243.22M949.407 557.305L-547.401 1286.09M1037.45 600.174L-459.353 1328.96M1125.5 643.044L-371.306 1371.83" stroke="#fff" stroke-opacity=".4"/></svg>